<svg width="33" height="33" viewBox="0 0 33 33" fill="none" xmlns="http://www.w3.org/2000/svg">
<path fill-rule="evenodd" clip-rule="evenodd" d="M28.7571 1.41429H4.71429C3.15212 1.41429 1.88572 2.68068 1.88572 4.24286V28.2857C1.88572 29.8479 3.15212 31.1143 4.71429 31.1143H28.7571C30.3193 31.1143 31.5857 29.8479 31.5857 28.2857V4.24286C31.5857 2.68068 30.3193 1.41429 28.7571 1.41429ZM4.71429 0C2.37103 0 0.471436 1.89959 0.471436 4.24286V28.2857C0.471436 30.629 2.37103 32.5286 4.71429 32.5286H28.7571C31.1004 32.5286 33 30.629 33 28.2857V4.24286C33 1.89959 31.1004 0 28.7571 0H4.71429Z" fill="white"/>
<circle cx="16.7357" cy="16.2641" r="8.44285" stroke="white" stroke-width="1.5"/>
<circle cx="27.3429" cy="7.07151" r="0.914285" stroke="white"/>
</svg>
