<svg width="185" height="24" viewBox="0 0 185 24" fill="none" xmlns="http://www.w3.org/2000/svg">
<path d="M10.7255 5.39957C13.5428 5.39957 15.4105 6.06434 16.7717 6.63414L15.4105 10.1479C13.8277 8.31188 12.7198 6.79241 10.0291 6.79241C6.07214 6.79241 4.48937 11.5724 4.48937 20.151V23H0.184225V5.74779H4.48937V12.5537C5.12247 8.81836 6.67359 5.39957 10.7255 5.39957ZM27.7403 22.905C31.7289 22.905 33.5016 20.7208 33.8498 16.7955H38.0916C37.0153 21.8604 32.267 23.3166 27.7403 23.3166C22.4538 23.3166 17.2307 21.259 17.2307 14.3581C17.2307 7.48883 22.4538 5.43123 27.7403 5.43123C33.0267 5.43123 38.3132 7.23559 38.3132 14.7379H21.5358C21.5675 20.4992 23.72 22.905 27.7403 22.905ZM27.7403 5.84275C23.0236 5.84275 21.5358 9.38816 21.5358 14.2948H34.0081C34.0081 9.48313 32.4253 5.84275 27.7403 5.84275ZM60.3417 5.39957C63.159 5.39957 65.0267 6.06434 66.3879 6.63414L65.0267 10.1479C63.4439 8.31188 62.336 6.79241 59.6453 6.79241C55.6883 6.79241 54.1056 11.5724 54.1056 20.151V23H49.8004V5.74779H54.1056V12.5537C54.7387 8.81836 56.2898 5.39957 60.3417 5.39957ZM77.3565 22.905C81.3451 22.905 83.1178 20.7208 83.466 16.7955H87.7078C86.6315 21.8604 81.8832 23.3166 77.3565 23.3166C72.07 23.3166 66.8469 21.259 66.8469 14.3581C66.8469 7.48883 72.07 5.43123 77.3565 5.43123C82.6429 5.43123 87.9294 7.23559 87.9294 14.7379H71.152C71.1837 20.4992 73.3362 22.905 77.3565 22.905ZM77.3565 5.84275C72.6398 5.84275 71.152 9.38816 71.152 14.2948H83.6243C83.6243 9.48313 82.0415 5.84275 77.3565 5.84275ZM94.2931 23H89.988V0.936158H94.2931V23ZM108.802 5.43123C115.197 5.43123 117.729 7.17228 117.729 10.9076V23H113.424V21.987C111.873 22.9683 109.657 23.3482 107.315 23.3482C101.743 23.3482 96.3935 22.082 96.3935 16.9222C96.3935 11.7623 102.123 10.3695 107.315 10.3695C110.037 10.3695 112.063 10.876 113.424 11.794V10.1795C113.424 7.07731 111.462 5.84275 108.834 5.84275C106.08 5.84275 103.864 7.39387 102.82 10.1795L99.4324 8.85002C101.87 6.34924 105.004 5.43123 108.802 5.43123ZM113.424 21.4805V12.3954C112.253 11.604 110.354 10.876 107.346 10.876C103.01 10.876 100.73 13.4084 100.73 16.9222C100.73 20.4359 102.471 22.905 107.346 22.905C110.354 22.905 112.253 22.2086 113.424 21.4805ZM133.166 5.43123C137.977 5.43123 139.56 6.91904 139.56 10.7177V23H135.223V10.4644C135.223 7.71042 134.178 6.85572 131.994 6.85572C128.196 6.85572 124.65 11.7307 124.65 20.4359V23H120.345V5.74779H124.65V14.9279C125.79 9.60975 128.512 5.43123 133.166 5.43123ZM146.086 14.4847C146.086 19.3596 148.84 22.8734 153.176 22.8734C157.323 22.8734 159.856 20.5309 161.09 18.5999L161.597 19.5179C160.299 21.3223 158.115 23.3482 153.145 23.3482C147.922 23.3482 141.749 21.2906 141.749 14.4847C141.749 8.18525 146.972 5.39957 153.113 5.39957C155.962 5.39957 159.729 5.77944 161.945 7.80539L160.109 11.0026C159.476 9.57809 158.241 5.84275 153.145 5.84275C147.858 5.84275 146.086 9.6414 146.086 14.4847ZM173.899 22.905C177.888 22.905 179.661 20.7208 180.009 16.7955H184.251C183.174 21.8604 178.426 23.3166 173.899 23.3166C168.613 23.3166 163.39 21.259 163.39 14.3581C163.39 7.48883 168.613 5.43123 173.899 5.43123C179.186 5.43123 184.472 7.23559 184.472 14.7379H167.695C167.727 20.4992 169.879 22.905 173.899 22.905ZM173.899 5.84275C169.183 5.84275 167.695 9.38816 167.695 14.2948H180.167C180.167 9.48313 178.584 5.84275 173.899 5.84275Z" fill="#FFBC11"/>
</svg>
