<svg width="33" height="33" viewBox="0 0 33 33" fill="none" xmlns="http://www.w3.org/2000/svg">
<path d="M15.8129 10.2049C14.6317 10.1936 13.6272 10.2049 13.0631 10.4813C12.6854 10.6645 12.3978 11.0776 12.5729 11.0969C12.7931 11.129 13.2881 11.2351 13.5533 11.5935C13.8908 12.0515 13.8796 13.0881 13.8796 13.0881C13.8796 13.0881 14.0676 15.9376 13.4199 16.296C12.9747 16.5402 12.3656 16.0436 11.0478 13.7776C10.376 12.6108 9.86813 11.3235 9.86813 11.3235C9.86813 11.3235 9.7717 11.084 9.59813 10.9586C9.38438 10.8027 9.08866 10.7513 9.08866 10.7513L5.94349 10.7706C5.94349 10.7706 5.47259 10.7899 5.30384 10.9908C5.14634 11.1788 5.29099 11.5485 5.29099 11.5485C5.29099 11.5485 7.75152 17.3052 10.5383 20.2061C13.0937 22.8692 15.9946 22.6924 15.9946 22.6924H17.3124C17.3124 22.6924 17.7078 22.649 17.9087 22.4352C18.0983 22.2343 18.0919 21.8567 18.0919 21.8567C18.0919 21.8567 18.0662 20.0936 18.8826 19.8301C19.6926 19.5777 20.7212 21.5368 21.8204 22.2906C22.6562 22.8611 23.2894 22.7358 23.2894 22.7358L26.2288 22.6924C26.2288 22.6924 27.7604 22.5976 27.0324 21.3858C26.9762 21.2926 26.6113 20.4954 24.8547 18.8626C23.0081 17.1558 23.254 17.4322 25.4751 14.4751C26.8251 12.6735 27.3651 11.5742 27.1947 11.0969C27.034 10.6517 26.0408 10.7706 26.0408 10.7706L22.7317 10.7899C22.7317 10.7899 22.4874 10.7577 22.3058 10.8654C22.1809 10.9582 22.0814 11.0809 22.0165 11.2222C22.0165 11.2222 21.4894 12.6156 20.7919 13.8033C19.3229 16.3008 18.7267 16.439 18.4888 16.2831C17.9296 15.9183 18.0678 14.8254 18.0678 14.054C18.0678 11.624 18.4374 10.6195 17.3526 10.3576C16.9942 10.2692 16.7306 10.2129 15.8146 10.2049H15.8129Z" fill="white"/>
<path fill-rule="evenodd" clip-rule="evenodd" d="M28.2857 1.41429H4.24286C2.68068 1.41429 1.41429 2.68068 1.41429 4.24286V28.2857C1.41429 29.8479 2.68068 31.1143 4.24286 31.1143H28.2857C29.8479 31.1143 31.1143 29.8479 31.1143 28.2857V4.24286C31.1143 2.68068 29.8479 1.41429 28.2857 1.41429ZM4.24286 0C1.89959 0 0 1.89959 0 4.24286V28.2857C0 30.629 1.89959 32.5286 4.24286 32.5286H28.2857C30.629 32.5286 32.5286 30.629 32.5286 28.2857V4.24286C32.5286 1.89959 30.629 0 28.2857 0H4.24286Z" fill="white"/>
</svg>
